<svg version="1.1" id="Layer_1" xmlns="http://www.w3.org/2000/svg" xmlns:xlink="http://www.w3.org/1999/xlink" x="0px" y="0px"
	 width="100%" viewBox="0 0 210 1281" enable-background="new 0 0 210 1281" xml:space="preserve">
<path fill="#090514" opacity="1.000000" stroke="none" 
	d="
M1.394044,1262.311279 
	C1.000000,864.312439 1.000000,466.624878 1.000000,68.468658 
	C6.331258,65.051971 11.880332,66.177773 17.844753,67.378944 
	C19.857016,69.300125 20.302000,71.407288 20.566753,73.581116 
	C23.405699,96.891106 26.359213,120.187355 29.019489,143.518784 
	C29.758812,150.002899 28.685959,156.483490 28.796682,162.960663 
	C29.369081,196.444458 27.822981,229.903534 27.500965,263.376923 
	C27.281584,286.181183 27.588839,309.027863 26.505329,331.797882 
	C25.577511,351.295898 26.163818,370.764099 25.743347,390.239807 
	C24.312170,456.530243 25.577976,522.842651 24.464365,589.122925 
	C23.801023,628.603699 23.191765,668.094116 24.007919,707.535217 
	C25.180012,764.177246 23.562557,820.821045 24.983707,877.430298 
	C25.811827,910.417297 24.709919,943.403442 25.944956,976.347534 
	C26.706932,996.672913 25.841311,1017.006653 26.911728,1037.277466 
	C28.055355,1058.934814 26.791325,1080.605225 27.953653,1102.206421 
	C28.948967,1120.703735 27.754927,1139.210938 28.901205,1157.639282 
	C30.395449,1181.661865 25.715519,1205.058228 23.298302,1228.692505 
	C22.485018,1236.644409 21.140985,1244.534668 20.540989,1252.515991 
	C20.317348,1255.491089 20.016775,1258.497070 18.627974,1261.744873 
	C12.897290,1264.656372 7.358417,1264.205566 1.394044,1262.311279 
z"/>
<path fill="#090513" opacity="1.000000" stroke="none" 
	d="
M210.574829,67.779556 
	C211.000000,465.687592 211.000000,863.375183 211.000000,1261.531372 
	C210.454208,1262.397095 209.855667,1262.507324 208.836212,1262.028076 
	C206.791840,1258.523926 206.650497,1254.979004 206.441162,1251.517944 
	C204.773285,1223.941284 202.926270,1196.376099 201.185654,1168.804321 
	C199.508072,1142.231445 197.815506,1115.658936 196.104675,1089.089233 
	C194.714813,1067.504028 193.123352,1045.921143 191.617752,1024.341309 
	C190.355759,1006.252625 189.471893,988.122742 188.198792,970.030579 
	C186.902222,951.605042 186.198273,933.139648 184.484451,914.744202 
	C183.845016,907.880737 184.775391,901.100525 185.428818,894.310913 
	C188.395432,863.486267 190.844757,832.615540 194.011078,801.806824 
	C197.057556,772.164246 199.451294,742.454895 202.102310,712.772949 
	C204.518921,685.715515 205.227905,658.538879 204.116180,631.414001 
	C203.203278,609.140930 200.855453,586.927429 198.944885,564.701355 
	C196.549774,536.838257 193.350983,509.055115 191.079895,481.176605 
	C189.891464,466.588348 188.418472,451.997803 186.929733,437.421783 
	C185.070908,419.222443 183.802383,401.063354 185.798386,382.640747 
	C187.208160,369.629028 187.810669,356.436493 188.488724,343.302307 
	C189.371918,326.194000 190.768997,309.099060 191.910110,291.996552 
	C192.718933,279.874329 193.904831,267.780548 194.358643,255.629425 
	C194.799637,243.821228 196.258865,232.073761 196.766632,220.261353 
	C197.331299,207.125137 198.828537,194.051956 199.375656,180.905457 
	C200.046951,164.774963 201.723709,148.702545 202.715149,132.586288 
	C203.542786,119.132553 204.388519,105.678200 205.367493,92.235367 
	C205.932892,84.471550 205.486572,76.576180 208.153732,68.610497 
	C208.903564,67.745041 209.478424,67.525810 210.574829,67.779556 
z"/>
<path fill="#3A585D" opacity="1.000000" stroke="none" 
	d="
M211.000000,67.531342 
	C210.551987,67.968262 210.103973,67.936523 209.319656,67.931183 
	C203.548218,71.196396 197.625153,69.254234 191.431229,69.548492 
	C179.349777,69.912842 167.750198,69.770370 155.672012,69.570816 
	C149.459061,69.819344 143.723953,69.788338 137.513245,69.549042 
	C129.767319,69.691635 122.492622,70.127472 114.801910,69.065926 
	C111.844482,67.205627 109.085320,66.505074 106.012398,66.573471 
	C100.763680,66.690308 95.510147,66.624924 90.258934,66.597710 
	C87.742081,66.584671 85.345337,66.879997 82.887665,68.734657 
	C80.569595,69.697739 78.564949,69.737068 76.566216,69.741142 
	C59.410961,69.776115 42.255657,69.774765 25.100412,69.739380 
	C22.945049,69.734932 20.745655,69.830688 18.424427,68.274284 
	C12.673761,67.942429 7.302899,67.926384 1.466019,67.955170 
	C1.000000,56.645771 1.000000,45.291546 1.000000,33.468658 
	C3.548669,31.348967 6.041715,32.665348 8.084006,33.741875 
	C18.545780,39.256451 28.968721,37.541069 40.051147,35.534630 
	C54.527134,32.913795 65.377441,24.116203 77.272545,16.985592 
	C82.643456,13.765954 87.830078,10.733444 94.450005,11.493987 
	C97.134636,11.802418 99.686752,12.239063 102.120926,13.442204 
	C114.058823,19.342764 126.296089,24.610361 138.244263,30.489441 
	C141.569778,32.125763 145.036575,33.228161 148.740021,33.487396 
	C153.742035,33.837543 158.705139,34.743744 163.489975,36.003529 
	C176.709045,39.483925 189.472504,38.446247 202.135117,33.643402 
	C204.707733,32.667625 207.423416,31.449358 210.677780,32.759838 
	C211.000000,44.354229 211.000000,55.708454 211.000000,67.531342 
z"/>
<path fill="#6FACAF" opacity="1.000000" stroke="none" 
	d="
M211.000000,32.531342 
	C206.495270,34.119053 201.767807,34.701694 197.529144,36.461575 
	C186.495148,41.042866 175.473511,39.957886 164.262741,37.634144 
	C158.580673,36.456375 152.804413,35.722801 147.060486,34.856266 
	C138.631775,33.584705 131.719666,28.605728 124.081718,25.418924 
	C116.264229,22.157207 108.860413,17.904888 101.045975,14.634689 
	C94.909081,12.066510 88.575890,11.699678 82.518715,15.628582 
	C76.380226,19.610228 69.671974,22.810448 63.911263,27.257156 
	C52.203251,36.294598 37.927311,36.689426 24.503691,39.963535 
	C20.939663,40.832825 17.720734,38.647160 14.430910,37.590332 
	C10.159885,36.218292 5.975239,34.577362 1.376706,33.026085 
	C1.000000,23.681587 1.179034,14.357893 0.904313,5.047586 
	C0.806220,1.723204 1.418760,0.888266 4.942700,0.896881 
	C64.014427,1.041282 123.086609,1.000000 182.158691,1.000000 
	C190.478699,1.000000 198.810089,1.254630 207.113495,0.883355 
	C210.791519,0.718896 211.172043,1.916785 211.085251,5.108250 
	C210.841049,14.087193 211.000000,23.077099 211.000000,32.531342 
z"/>
<path fill="#FFFFFF" opacity="1.000000" stroke="none" 
	d="
M208.619537,1261.554932 
	C209.455688,1261.890991 209.894424,1261.945312 210.666595,1261.999756 
	C211.000000,1267.989502 210.930893,1273.980225 211.045349,1279.967529 
	C211.076569,1281.600220 210.875031,1282.416626 209.033951,1282.021851 
	C208.397736,1281.885254 207.707642,1282.000000 207.042145,1282.000000 
	C139.660660,1282.000000 72.279106,1281.961060 4.897944,1282.107666 
	C1.284444,1282.115479 0.713602,1281.146362 0.917697,1277.906616 
	C1.230896,1272.935059 1.000000,1267.929321 1.000000,1262.468994 
	C6.342849,1261.990723 11.685699,1261.981445 17.487259,1261.896240 
	C19.594681,1260.458008 21.580633,1260.275635 23.589031,1260.276367 
	C43.005032,1260.283447 62.421455,1260.075195 82.324158,1260.415527 
	C92.840981,1260.112305 102.871376,1260.205200 113.382851,1260.432861 
	C121.544540,1260.137817 129.226364,1260.227295 137.385773,1260.440674 
	C142.961441,1260.185059 148.060822,1260.224609 153.639923,1260.454834 
	C166.046066,1260.085327 177.974365,1260.215210 190.385712,1260.432617 
	C196.663803,1260.505737 202.512482,1259.395508 208.619537,1261.554932 
z"/>
<path fill="#461B59" opacity="1.000000" stroke="none" 
	d="
M83.321198,1261.503662 
	C61.627434,1261.905884 40.252781,1261.945312 18.412050,1261.902466 
	C19.434441,1248.313599 20.838154,1234.796997 22.434280,1221.303101 
	C24.165779,1206.664551 27.901150,1191.996460 27.495155,1177.432251 
	C26.832329,1153.655029 27.758869,1129.866577 26.337181,1106.086792 
	C25.304602,1088.815552 26.514240,1071.419067 25.773157,1054.119141 
	C24.831980,1032.148315 25.709446,1010.163574 24.785788,988.223572 
	C23.467920,956.919678 24.702940,925.607422 23.825115,894.320007 
	C22.208408,836.697266 23.957235,779.055542 22.705633,721.449219 
	C21.862543,682.644958 21.613569,643.840698 22.284357,605.070435 
	C23.275660,547.774780 21.993496,490.474823 23.290018,433.202179 
	C23.979887,402.727936 23.065849,372.244904 24.282160,341.807892 
	C25.100725,321.324066 24.101973,300.832397 25.193321,280.399933 
	C26.304787,259.590790 25.006395,238.755646 26.277050,218.008896 
	C27.540485,197.380081 26.209038,176.750366 27.533228,156.139709 
	C28.472399,141.521774 25.082872,127.172180 23.635967,112.705627 
	C22.349564,99.843796 20.543423,87.033745 18.945074,74.203537 
	C18.719685,72.394272 18.371548,70.600296 18.062424,68.378860 
	C39.264923,67.954239 60.485226,67.950012 82.148453,67.939476 
	C84.536217,68.988213 84.633789,70.937187 84.612778,72.721352 
	C84.506813,81.719337 85.721542,90.643181 85.839256,99.645439 
	C86.108887,120.264465 87.273819,140.861160 88.540108,161.446457 
	C89.020050,169.248611 89.242393,177.084457 89.440056,184.876648 
	C89.760750,197.519058 90.441582,210.152679 90.899956,222.781662 
	C91.623573,242.718643 92.336876,262.666321 93.462387,282.594391 
	C93.968498,291.555389 94.589912,300.537384 94.665161,309.512177 
	C94.832619,329.485748 96.200287,349.410309 96.980911,369.353912 
	C98.047928,396.614105 99.531052,423.855927 99.718559,451.144562 
	C99.735664,453.634674 99.893013,456.148926 98.922142,459.015564 
	C98.509048,459.684875 98.299850,459.920959 97.623901,460.198669 
	C93.641830,454.136688 94.389305,447.203949 93.504898,440.619812 
	C92.718094,434.762238 92.364166,428.836456 91.593796,422.510498 
	C89.391075,402.628143 87.879684,383.128845 85.643372,363.703033 
	C85.453323,362.052155 85.381119,360.397858 85.433670,358.300659 
	C85.546349,356.432007 85.675529,354.996490 84.989883,353.200867 
	C84.626732,351.630005 84.506950,350.467041 84.559555,348.842834 
	C84.081917,336.611023 81.953430,324.998169 80.865685,313.267761 
	C78.208824,284.615784 75.246376,255.989563 72.362991,227.357620 
	C70.245827,206.334198 67.903709,185.325089 66.000000,164.287933 
	C63.526665,136.956009 60.140087,109.716240 58.044502,82.351440 
	C57.883320,80.246651 57.960930,78.132507 58.373810,76.513535 
	C58.520294,109.311295 55.597935,142.436203 54.224609,176.076202 
	C54.355667,177.735855 54.350319,178.948837 54.466206,180.616638 
	C54.514690,181.693146 54.490334,182.309845 54.407333,183.392563 
	C53.198879,189.575821 53.010208,195.449509 52.929802,201.190140 
	C52.671104,219.659897 51.423103,238.086212 50.483288,256.507568 
	C49.280731,280.078949 48.221413,303.662720 46.944748,327.232635 
	C46.090714,342.999817 45.218937,358.774658 44.513134,374.553864 
	C44.053150,384.837524 44.153553,395.167572 42.957550,405.433167 
	C42.242649,411.569366 43.459854,417.725616 43.877163,423.840118 
	C44.975197,439.928619 45.744194,456.044189 47.335861,472.102509 
	C48.368790,482.523804 48.796722,493.001801 49.452728,503.453766 
	C50.504612,520.213135 51.478779,536.977051 52.589264,553.733704 
	C52.950668,559.187134 52.854694,564.676331 53.573601,570.593384 
	C54.657913,590.478943 54.905727,609.945984 56.051899,629.324402 
	C57.549370,654.642395 55.802219,679.840027 55.494675,705.081970 
	C55.353378,716.678955 54.205353,728.293640 53.701767,740.390869 
	C52.248478,762.945740 51.041386,785.035767 49.621937,807.111572 
	C48.532497,824.054993 47.171261,840.986572 46.101757,857.928101 
	C45.294388,870.717224 44.119221,883.482178 43.626366,896.302368 
	C42.511421,925.304443 45.745071,954.132690 46.531219,983.052551 
	C46.961178,998.869141 47.985924,1014.654114 48.844273,1030.439941 
	C50.172695,1054.870850 51.013885,1079.324097 52.388741,1103.753906 
	C53.135571,1117.024536 54.125530,1130.346191 53.480885,1144.138794 
	C55.233585,1152.796753 55.059208,1161.189453 55.438267,1169.465332 
	C56.390060,1190.245483 57.457321,1211.018555 58.529961,1231.792480 
	C58.760975,1236.266479 58.678143,1240.772827 58.336590,1244.009888 
	C59.181999,1226.384521 61.602257,1207.649902 63.265186,1188.846069 
	C64.995872,1169.276001 66.888847,1149.721924 68.784691,1130.167480 
	C71.676437,1100.341064 74.800278,1070.537598 77.463661,1040.688110 
	C79.782730,1014.697510 82.290291,988.723267 84.913498,962.327209 
	C85.355797,949.290466 87.708305,936.889832 88.819534,924.353943 
	C89.667023,914.793396 89.875481,905.169495 91.559860,895.227173 
	C92.900276,887.934998 92.416985,880.954407 93.296661,874.074402 
	C93.715675,870.797180 93.987617,867.491638 94.529465,864.229614 
	C94.897018,862.016907 95.545258,859.882019 99.001823,860.756775 
	C100.577652,862.595154 100.666573,864.431091 100.532661,866.272339 
	C98.817787,889.851135 98.853760,913.502808 97.599678,937.097229 
	C96.663124,954.717651 96.541512,972.380432 95.500549,989.967224 
	C93.897453,1017.051025 93.440102,1044.171387 91.996437,1071.255615 
	C91.483276,1080.882812 90.898239,1090.526611 90.687210,1100.182373 
	C90.185455,1123.139648 89.102486,1146.077026 87.888390,1169.007812 
	C87.457298,1177.149780 87.185371,1185.317261 86.972374,1193.449219 
	C86.436249,1213.917236 84.754898,1234.339600 84.709244,1254.820557 
	C84.704437,1256.975220 84.825081,1259.175049 83.321198,1261.503662 
z"/>
<path fill="#211428" opacity="1.000000" stroke="none" 
	d="
M209.010498,1261.402100 
	C203.332397,1261.881226 197.647858,1261.925659 191.503555,1261.894165 
	C189.142776,1259.985474 189.366623,1257.571045 189.294937,1255.262085 
	C188.432266,1227.480469 186.715652,1199.738525 185.481125,1171.974976 
	C185.015442,1161.502441 184.732925,1151.015503 184.337738,1140.535156 
	C183.585175,1120.577271 182.381180,1100.644287 181.463440,1080.696167 
	C181.088654,1072.549316 180.743988,1064.390503 180.474503,1056.251465 
	C179.868561,1037.950195 179.016617,1019.660828 178.192947,1001.371765 
	C177.114716,977.430237 176.509995,953.453308 174.990265,929.551880 
	C173.480774,905.811279 175.847931,882.334900 176.921112,858.740479 
	C177.586777,844.105591 178.946121,829.522156 179.409714,814.868103 
	C179.935547,798.245728 180.937622,781.625183 182.019363,765.019653 
	C182.647064,755.383972 182.670303,745.721680 183.058380,736.077698 
	C184.733032,694.460144 184.819305,652.797607 184.087387,611.164368 
	C183.607788,583.884583 182.742599,556.571777 181.019928,529.340698 
	C179.433441,504.262390 178.569809,479.147217 176.683823,454.074951 
	C175.288376,435.523804 173.368561,416.882812 174.331436,398.213531 
	C175.231384,380.764465 176.074127,363.311798 176.987213,345.863190 
	C177.465546,336.722687 177.911514,327.568420 178.163452,318.426666 
	C178.718384,298.288971 180.391205,278.212311 181.028610,258.088379 
	C181.329071,248.601334 182.033752,239.134064 182.231918,229.651413 
	C182.645844,209.843063 184.215637,190.095047 185.051178,170.310715 
	C185.451492,160.831726 185.626373,151.350128 186.185638,141.869232 
	C187.538071,118.942818 188.267471,95.982689 189.335022,73.040031 
	C189.405106,71.533897 189.554443,70.042587 190.752991,68.372375 
	C196.719849,67.968124 202.385803,67.940651 208.517563,67.935364 
	C207.483917,82.967232 206.715164,98.021507 205.909805,113.082191 
	C204.883698,132.270508 203.274429,151.427200 201.974869,170.601471 
	C200.932816,185.976440 200.056671,201.362885 198.962921,216.734009 
	C197.740494,233.913452 196.261185,251.074799 195.073441,268.256439 
	C194.227203,280.497803 193.800186,292.767944 192.967316,305.010376 
	C191.764572,322.689728 190.313171,340.352051 189.065765,358.028564 
	C188.283936,369.107666 188.089645,380.243134 186.907990,391.275787 
	C184.890091,410.115723 188.594955,428.557312 189.725784,447.185486 
	C190.579803,461.253876 192.050095,475.279694 193.344330,489.269653 
	C194.972488,506.869110 196.144485,524.553284 198.723999,542.085083 
	C200.023392,550.916443 200.244797,559.904602 201.004593,568.817566 
	C202.269958,583.661133 203.826782,598.485046 204.786911,613.347839 
	C205.568405,625.445251 206.295639,637.554749 206.068298,649.712524 
	C205.773041,665.504150 206.345978,681.317444 204.974518,697.079834 
	C203.425262,714.885254 201.374115,732.655640 200.241562,750.485779 
	C199.442795,763.061157 197.974731,775.558167 196.932007,788.100586 
	C195.931931,800.130310 194.086395,812.095703 193.290176,824.134216 
	C192.731934,832.574463 191.807129,840.960754 191.020462,849.369690 
	C189.679306,863.705627 188.695267,878.080872 187.050537,892.380859 
	C185.445480,906.335876 186.316986,920.162964 187.791916,934.025452 
	C188.423447,939.961060 188.233810,945.932800 188.807831,951.907166 
	C190.043869,964.771667 190.171753,977.738159 191.051575,990.642517 
	C192.506058,1011.975464 193.956238,1033.305298 195.206039,1054.653320 
	C196.086884,1069.699341 197.208374,1084.739624 198.170502,1099.788208 
	C199.502777,1120.625977 200.727310,1141.474243 202.195618,1162.299072 
	C203.279846,1177.676514 204.217499,1193.053223 205.113556,1208.441040 
	C206.075958,1224.968384 207.669632,1241.458862 208.972763,1257.966553 
	C209.051300,1258.961426 208.996704,1259.966797 209.010498,1261.402100 
z"/>
<path fill="#211428" opacity="1.000000" stroke="none" 
	d="
M154.320923,1261.542480 
	C148.971710,1261.885742 143.965042,1261.928711 138.499680,1261.895020 
	C136.682922,1260.690308 136.129807,1259.135864 135.735260,1257.491699 
	C129.790009,1232.717773 123.875694,1207.934937 118.056808,1183.132812 
	C115.964424,1174.214233 116.771446,1164.817749 117.591026,1155.735596 
	C118.700806,1143.437744 118.769783,1131.091553 118.992455,1118.823730 
	C119.454811,1093.351807 120.874352,1067.919189 121.542305,1042.459839 
	C122.319061,1012.853271 123.512276,983.248047 124.456070,953.638184 
	C125.299377,927.180847 125.820137,900.723022 126.472656,874.264893 
	C127.195023,844.974792 127.536995,815.670715 128.483383,786.396973 
	C129.959015,740.752258 128.868347,695.120300 129.229828,649.485352 
	C129.497726,615.665283 129.698334,581.834778 129.163757,548.021057 
	C128.645355,515.231262 127.652618,482.447937 127.072365,449.654633 
	C126.651421,425.864777 126.016869,402.061462 125.150932,378.281250 
	C124.066818,348.509369 123.429169,318.721283 122.102684,288.962341 
	C121.265053,270.170471 121.091293,251.360565 120.128082,232.579712 
	C118.900589,208.646057 118.568848,184.678940 117.282890,160.748947 
	C116.688065,149.680069 118.077774,138.896927 120.983597,128.165985 
	C125.684341,110.806572 129.673965,93.258965 134.017288,75.804161 
	C134.614944,73.402344 135.005417,70.888237 136.711548,68.369179 
	C142.679886,67.980675 148.345779,67.964279 154.475311,67.972153 
	C155.472748,68.635666 156.084625,69.282585 156.187164,70.117020 
	C157.823456,83.432968 160.262939,96.671654 159.958771,110.599754 
	C155.631119,121.911263 150.530197,132.389481 145.872284,143.060562 
	C144.704193,145.736572 144.451111,148.567108 144.691818,151.393677 
	C146.117706,168.136917 146.920929,184.922714 148.225174,201.675217 
	C149.477707,217.763321 150.399567,233.878189 151.642258,249.968170 
	C153.179688,269.874237 154.419724,289.801544 155.992508,309.704773 
	C157.067062,323.303314 157.832001,336.919250 158.590485,350.539398 
	C159.189056,361.287689 159.224792,372.105072 161.264084,383.220154 
	C161.950790,393.832581 162.217621,403.979309 161.113266,414.112183 
	C160.823792,416.768280 160.777115,419.430054 160.777069,422.095856 
	C160.774536,583.357117 160.743103,744.618347 160.846390,905.879578 
	C160.853531,917.015015 162.422333,928.137329 161.453308,939.777588 
	C160.076904,945.426575 159.660843,950.679749 159.323059,956.017090 
	C158.494034,969.116272 158.131744,982.236694 157.090073,995.331543 
	C155.863358,1010.752563 154.812485,1026.192383 153.645782,1041.621460 
	C152.065170,1062.523926 150.912201,1083.455322 149.504669,1104.367920 
	C148.052444,1125.944458 146.890335,1147.554077 144.739349,1169.069946 
	C143.899673,1177.468994 146.930237,1184.473267 150.311615,1191.455933 
	C153.724258,1198.503296 157.122162,1205.514771 159.662231,1213.409058 
	C161.352402,1219.666138 159.391922,1225.319946 158.817032,1231.041748 
	C158.005661,1239.116943 157.103851,1247.181763 156.594940,1255.284180 
	C156.460022,1257.432373 156.472595,1259.634277 154.320923,1261.542480 
z"/>
<path fill="#471B59" opacity="1.000000" stroke="none" 
	d="
M159.751175,941.508484 
	C158.427338,880.943604 159.024902,820.814941 158.990021,760.690918 
	C158.923874,646.705994 158.880554,532.720642 159.214157,418.736572 
	C159.248108,407.134583 159.872482,395.484772 159.941330,383.376587 
	C159.165970,367.493683 157.718994,352.099457 159.036102,336.648987 
	C159.489105,331.335083 159.320160,326.000793 159.232971,320.680176 
	C158.592178,281.579651 160.428543,242.504959 160.506653,203.407120 
	C160.534500,189.469635 160.896561,175.479538 161.320221,161.521347 
	C161.741287,147.648972 160.003906,133.963364 158.587585,120.238777 
	C158.295853,117.411781 158.314575,114.611664 158.781555,111.383255 
	C158.043915,99.385681 157.141403,87.792702 155.304962,76.294144 
	C154.918503,73.874451 155.063828,71.369835 154.951538,68.450378 
	C166.660889,67.988792 178.382828,67.981178 190.579330,67.984573 
	C190.355270,87.920448 189.967590,107.862740 188.851791,127.764198 
	C188.071091,141.688766 187.396149,155.607254 186.814896,169.540817 
	C186.254745,182.968246 185.632812,196.402618 184.905579,209.824295 
	C184.042892,225.745773 183.426880,241.667099 182.873657,257.601135 
	C182.119324,279.327362 180.476898,301.013397 179.801559,322.757233 
	C179.327667,338.015350 178.492828,353.276733 177.815720,368.535858 
	C177.227493,381.792206 175.548126,395.029297 176.076508,408.309296 
	C176.907120,429.184967 177.905609,450.053162 179.736160,470.884796 
	C180.357864,477.959656 180.859558,485.115387 180.977814,492.254517 
	C181.409714,518.333191 183.959229,544.319885 184.277802,570.417053 
	C184.354080,576.666138 184.743027,583.007324 185.021057,589.304871 
	C186.689117,627.086975 186.221115,664.893799 185.806976,702.682434 
	C185.581345,723.270752 184.563965,743.869324 183.791702,764.455933 
	C183.319305,777.048645 182.635529,789.651672 181.939484,802.243164 
	C180.813766,822.607544 179.090622,842.941589 178.152985,863.312988 
	C177.274826,882.392090 175.119659,901.445190 176.063354,920.577881 
	C177.257858,944.795410 178.452042,969.006653 179.225067,993.246460 
	C179.642349,1006.331177 180.588974,1019.418945 181.154282,1032.519043 
	C181.841507,1048.444946 182.394485,1064.379883 183.200378,1080.294922 
	C183.888657,1093.887695 184.121552,1107.502319 185.048264,1121.077393 
	C186.202606,1137.987305 186.507004,1154.922607 187.189148,1171.846436 
	C187.804169,1187.105469 188.403198,1202.374756 189.210983,1217.620483 
	C189.975311,1232.046387 191.191696,1246.441528 191.040344,1261.361328 
	C178.998596,1261.874512 166.953400,1261.930786 154.443298,1261.914917 
	C155.923187,1257.280029 154.815506,1252.382568 155.478943,1247.653442 
	C157.006302,1236.765503 157.857208,1225.782715 158.954956,1214.392334 
	C157.316360,1208.100098 158.992706,1202.365967 159.697449,1196.641602 
	C160.676361,1188.690308 161.230942,1180.754028 161.312393,1172.733643 
	C161.669586,1137.574829 160.473404,1102.429443 159.922882,1067.289673 
	C159.531433,1042.303589 160.142273,1017.299683 159.104797,992.342651 
	C158.404938,975.507202 158.823364,958.746033 159.751175,941.508484 
z"/>
<path fill="#461B59" opacity="1.000000" stroke="none" 
	d="
M136.544128,67.982948 
	C136.280777,77.986679 132.740021,87.348915 130.451843,96.985878 
	C126.861198,112.108284 122.123512,127.008263 119.438805,142.277969 
	C117.701653,152.158295 118.659744,162.531342 119.413681,172.673370 
	C119.499252,173.824356 119.910355,174.957321 119.943054,176.105103 
	C120.321747,189.398239 120.658684,202.692581 121.002640,215.986710 
	C121.574265,238.080429 122.816208,260.146210 123.264870,282.253265 
	C123.621719,299.836212 124.548805,317.429688 125.151627,335.024139 
	C125.925636,357.614929 126.451904,380.213379 127.287819,402.793762 
	C127.737244,414.933899 127.171585,427.101166 128.139465,439.182861 
	C129.485382,455.983551 128.057281,472.824524 129.240173,489.561035 
	C130.193726,503.052917 129.627213,516.501343 130.005585,529.963196 
	C132.275894,610.736206 130.758011,691.526489 130.740982,772.307129 
	C130.737228,790.077271 130.815826,807.930359 129.739151,825.673950 
	C128.971130,838.330811 129.895370,850.987183 128.867416,863.564453 
	C127.562286,879.533264 128.629547,895.507324 127.887550,911.449890 
	C126.867401,933.368896 126.525932,955.301941 125.817696,977.224121 
	C125.211807,995.978821 124.752655,1014.747253 123.880753,1033.491333 
	C123.016083,1052.080078 122.625328,1070.680176 121.871742,1089.266357 
	C121.057259,1109.354370 120.395485,1129.440918 119.768768,1149.533203 
	C119.546738,1156.651245 119.293396,1163.799316 118.948692,1170.927856 
	C118.367416,1182.948730 122.496330,1194.008423 125.454430,1205.339478 
	C127.288094,1212.363525 128.649918,1219.514404 130.108871,1226.631836 
	C132.470840,1238.154297 136.315811,1249.333496 138.033188,1261.411621 
	C130.317154,1261.873413 122.593300,1261.928467 114.403191,1261.901489 
	C112.606812,1260.567993 112.322685,1258.898560 112.351318,1257.230347 
	C112.451607,1251.387451 111.259148,1245.591675 111.367134,1239.799072 
	C111.792473,1216.983276 110.247032,1194.209839 110.223099,1171.406250 
	C110.200394,1149.771362 109.465233,1128.138062 108.947762,1106.517700 
	C108.577408,1091.044312 109.094215,1075.536621 108.104996,1060.109497 
	C106.920113,1041.630981 107.868729,1023.154358 107.155342,1004.701843 
	C105.914406,972.603394 105.697456,940.492493 105.081490,908.384644 
	C104.455986,875.779053 103.462440,843.180237 103.122536,810.565552 
	C103.055077,804.093994 102.336670,797.618103 102.663834,790.651978 
	C102.816048,788.660217 103.647552,787.272278 103.530121,785.259033 
	C103.526138,782.715515 103.420883,780.617126 103.850204,778.090942 
	C106.077202,765.338989 106.236366,752.829407 107.816689,740.453735 
	C111.698830,710.052124 114.891747,679.567993 114.283417,648.856934 
	C113.890938,629.043030 112.146286,609.306213 109.951698,589.604187 
	C108.330261,575.047546 106.300812,560.533142 105.393288,545.892822 
	C105.158607,542.106934 104.610840,538.305542 104.171631,534.070923 
	C103.672615,532.480469 103.562775,531.286011 103.546082,529.631470 
	C103.640366,527.665283 103.348122,526.205627 102.791626,524.312805 
	C103.386162,501.912384 102.599632,479.942169 104.095741,458.020142 
	C104.163773,457.023315 104.255798,456.025787 104.233665,455.027740 
	C103.639282,428.230469 105.220085,401.462616 105.502625,374.674744 
	C105.686722,357.220612 106.105186,339.749878 106.293907,322.284088 
	C106.317398,320.109711 106.533356,317.961395 107.543335,315.483826 
	C109.856010,312.837799 110.286316,309.766052 110.293404,307.157898 
	C110.327682,294.551666 111.651772,281.874329 108.810783,268.908142 
	C108.080971,252.322556 107.737808,236.192215 108.900734,220.070526 
	C109.008438,218.577469 109.252823,217.086899 109.212646,215.590698 
	C108.551178,190.954819 109.981140,166.345856 110.441666,141.730042 
	C110.815102,121.769073 111.094604,101.809082 111.353767,81.846741 
	C111.411560,77.395576 111.681656,72.864769 113.685654,68.251892 
	C121.379585,67.925301 128.726929,67.947067 136.544128,67.982948 
z"/>
<path fill="#0A0514" opacity="1.000000" stroke="none" 
	d="
M109.006226,314.585693 
	C107.265175,322.113312 108.065918,329.306458 108.050079,336.434082 
	C107.994591,361.400604 107.086052,386.353760 106.655006,411.310272 
	C106.396614,426.270477 106.807655,441.281677 105.771782,456.203003 
	C104.628159,472.676514 105.602669,489.151794 104.763268,505.591980 
	C104.449928,511.729034 104.026329,517.852844 104.065475,524.463684 
	C104.788124,525.999146 104.346741,527.227356 104.683395,528.692505 
	C104.858215,530.080627 104.887573,531.146667 104.911346,532.612915 
	C105.182793,536.977112 104.812141,540.957031 105.395462,544.927246 
	C105.674644,546.827515 105.674080,548.977905 102.206627,550.525940 
	C98.893173,527.542542 99.869637,504.713257 98.327034,481.630341 
	C98.464874,479.027283 98.971992,476.851532 97.956734,474.352936 
	C97.479004,473.242401 97.266808,472.471619 97.183975,471.267273 
	C98.078964,467.546417 97.089355,464.063324 98.182556,460.379028 
	C94.742630,329.563843 87.513771,199.259857 82.712769,68.394043 
	C82.865189,66.119873 83.572372,64.951881 85.745049,64.971031 
	C94.151352,65.045128 102.558746,64.994934 110.965729,64.994255 
	C112.455620,64.994133 113.489388,65.624748 113.947296,67.521713 
	C112.143539,134.591690 110.607910,201.287170 109.890259,268.463684 
	C110.548241,278.217987 110.469185,287.523102 110.533493,296.828644 
	C110.573761,302.654510 110.375435,308.429596 109.006226,314.585693 
z"/>
<path fill="#0A0514" opacity="1.000000" stroke="none" 
	d="
M104.228592,788.743774 
	C105.017860,809.158630 104.370865,829.319885 105.262138,849.412781 
	C105.963409,865.222290 105.185753,881.041443 106.209206,896.794922 
	C107.419891,915.430359 106.149055,934.088257 107.254311,952.674683 
	C108.105576,966.989746 107.185257,981.314941 108.190102,995.568359 
	C109.339684,1011.874817 108.319832,1028.187988 109.149773,1044.459839 
	C110.048996,1062.089844 109.293953,1079.750854 110.259880,1097.335815 
	C111.110291,1112.817871 110.150337,1128.302246 111.175217,1143.723877 
	C112.280800,1160.359985 111.132164,1177.023804 112.235504,1193.604736 
	C113.265694,1209.086426 112.351555,1224.557861 113.156853,1240.000977 
	C113.520302,1246.970947 113.930504,1253.927612 113.936974,1261.363037 
	C103.936333,1261.876831 93.935738,1261.934204 83.468613,1261.928955 
	C82.581001,1238.406372 84.683121,1215.023926 85.262772,1191.590454 
	C85.640373,1176.325073 86.638954,1161.059082 87.147629,1145.780762 
	C87.982590,1120.702026 88.864655,1095.620850 90.155624,1070.562744 
	C90.967888,1054.796387 91.372849,1039.019775 92.100601,1023.255798 
	C93.326591,996.699524 94.266487,970.135437 95.268433,943.571655 
	C95.869537,927.635071 96.871094,911.714172 97.195007,895.756775 
	C97.423965,884.476868 98.330551,873.210693 98.947952,861.492310 
	C97.881348,859.811646 97.497421,858.333374 97.472260,856.272339 
	C97.613457,852.413025 97.573608,849.017090 97.496002,845.151306 
	C99.117416,834.782288 98.430153,824.743591 99.001335,814.782166 
	C99.972275,797.848938 100.470291,780.874329 101.315140,763.923340 
	C101.436974,761.478699 101.048943,758.856506 103.846375,756.545898 
	C107.407707,763.410095 104.279991,770.388611 104.974846,777.524841 
	C104.936302,780.038940 104.909584,782.077454 104.858559,784.552002 
	C104.221481,786.082947 104.634819,787.302002 104.228592,788.743774 
z"/>
<path fill="#211428" opacity="1.000000" stroke="none" 
	d="
M105.251511,777.717651 
	C102.924088,773.558777 104.437180,768.865112 104.016434,764.306030 
	C103.835785,762.348572 103.986206,760.360535 103.569656,758.361328 
	C102.729073,764.210632 102.344849,770.188477 102.267273,775.975952 
	C102.102501,788.268616 101.335587,800.541321 100.736313,812.787598 
	C100.227455,823.186340 101.001785,833.688049 99.078049,844.427124 
	C97.533470,848.328186 97.684868,851.894775 98.803482,855.778625 
	C99.028168,857.446289 99.023399,858.830200 98.989944,860.630249 
	C95.787857,860.626831 96.169998,862.872192 95.983307,864.864746 
	C95.170860,873.535889 93.913689,882.168030 93.905823,890.907776 
	C93.904823,892.017700 93.341820,893.127014 92.940033,894.648499 
	C89.674553,895.829285 89.842163,893.152039 89.369339,891.474731 
	C85.933807,879.287109 83.461754,866.862000 80.381004,854.583435 
	C73.731583,828.081665 66.840012,801.646790 59.738987,775.261963 
	C56.765892,764.215027 52.944225,753.300903 52.231583,741.350769 
	C52.364338,721.269531 53.740681,701.570435 54.344250,681.836487 
	C54.791370,667.217712 55.225388,652.588196 54.782299,638.011536 
	C54.238239,620.113281 53.521378,602.212280 52.882820,584.311951 
	C52.736122,580.199585 51.754154,576.109192 51.965881,571.488403 
	C55.229389,551.335571 61.422714,532.366394 66.494629,513.128113 
	C73.457031,486.719055 80.113029,460.235504 86.752701,433.746033 
	C87.481941,430.836639 88.191727,427.919586 89.201775,425.094055 
	C89.746185,423.571014 90.062004,421.764496 92.570297,421.769379 
	C94.294571,434.340912 95.657471,446.715210 97.029297,459.531555 
	C98.474709,463.298035 98.434143,466.822205 98.224380,470.727051 
	C98.172043,471.613037 98.335625,472.111969 98.704926,472.780518 
	C100.137245,474.943970 99.146843,477.162109 99.752998,479.586121 
	C101.069572,502.910095 101.348495,525.930481 103.121284,548.873718 
	C103.536888,548.870239 103.952484,548.866699 104.368088,548.863220 
	C104.368088,543.786865 104.368088,538.710449 104.636917,533.323547 
	C107.071182,537.117798 106.313538,541.727905 106.815056,546.050476 
	C108.834343,563.454529 110.520126,580.895752 112.792397,598.276489 
	C113.864059,606.473633 114.394173,614.749084 114.961411,623.003296 
	C116.089699,639.421936 116.729385,655.901917 115.807175,672.308838 
	C114.787125,690.456299 113.440933,708.607056 111.138527,726.673279 
	C108.986778,743.557434 107.384254,760.511536 105.251511,777.717651 
z"/>
<path fill="#0A0514" opacity="1.000000" stroke="none" 
	d="
M51.977226,741.449829 
	C55.340633,753.359619 58.714989,765.701294 62.000980,778.066528 
	C68.200096,801.393982 74.642685,824.662598 80.398758,848.099426 
	C83.468353,860.597717 86.989876,873.011597 89.111298,885.748291 
	C89.629616,888.860229 91.104546,891.812866 92.490265,894.949585 
	C91.171524,917.150696 89.161530,939.206299 86.083679,961.571045 
	C83.904045,979.916626 80.778664,997.698181 77.687096,1015.479553 
	C74.812027,1032.015625 71.807922,1048.533081 68.993698,1065.077026 
	C65.511269,1085.549316 61.787968,1105.980469 58.440956,1126.475708 
	C57.664501,1131.230225 56.667767,1135.944702 56.032169,1140.728394 
	C55.783726,1142.598267 55.483944,1144.811279 52.591713,1145.104858 
	C51.782272,1131.573853 51.590378,1118.258911 50.841167,1104.975586 
	C49.615185,1083.239136 48.734871,1061.491211 47.763908,1039.744385 
	C46.927040,1021.000793 45.811329,1002.263306 44.851501,983.520752 
	C44.044037,967.753174 43.227734,951.995361 42.822781,936.209961 
	C42.635899,928.925110 41.246014,921.662659 41.199459,914.384888 
	C41.138927,904.922058 41.762703,895.447815 42.303619,885.990601 
	C42.653774,879.868652 43.493626,873.776123 43.922016,867.657043 
	C45.614613,843.479675 47.529732,819.312073 48.753819,795.110168 
	C49.391712,782.497986 50.408623,769.913330 50.986790,757.300781 
	C51.222416,752.160767 51.622837,747.028320 51.977226,741.449829 
z"/>
<path fill="#0A0514" opacity="1.000000" stroke="none" 
	d="
M92.932701,421.526367 
	C89.648300,423.728455 89.993019,427.338104 89.263260,430.113678 
	C83.920494,450.434387 79.029617,470.873474 73.750137,491.211334 
	C68.476974,511.524872 62.649685,531.698303 57.645748,552.075684 
	C56.120468,558.287048 53.447071,564.146179 52.252579,570.764832 
	C50.349911,547.026001 48.690514,523.020935 47.109383,499.010651 
	C46.323833,487.081635 45.776550,475.136658 44.952675,463.210541 
	C43.751991,445.829895 42.063618,428.475555 41.246845,411.078827 
	C40.811848,401.813690 41.163422,392.409302 42.278442,383.203217 
	C43.342522,374.417755 43.265755,365.601471 43.652164,356.847687 
	C44.414059,339.587738 45.719009,322.354309 46.210171,305.070007 
	C46.799732,284.322968 48.368862,263.600403 49.203510,242.846573 
	C49.764194,228.904938 50.848774,214.984695 51.139618,201.019943 
	C51.260059,195.236908 52.228081,189.471512 52.834209,183.271942 
	C56.333176,181.944504 56.237427,184.791168 56.608932,186.698547 
	C58.996578,198.957245 61.162704,211.258118 63.442139,223.537811 
	C67.452522,245.142395 71.174286,266.801056 75.029686,288.432587 
	C78.353165,307.079681 81.922508,325.702179 84.468460,344.486084 
	C84.649170,345.819366 84.855339,347.112946 85.599274,348.716614 
	C85.866364,350.128387 85.909157,351.174408 85.945023,352.613342 
	C86.074776,354.200256 85.803764,355.448792 86.565567,356.843323 
	C88.723495,376.780212 90.739120,396.452209 92.726631,416.127045 
	C92.892624,417.770294 92.869171,419.432617 92.932701,421.526367 
z"/>
<path fill="#211429" opacity="1.000000" stroke="none" 
	d="
M52.155994,1145.311035 
	C54.891403,1144.452271 54.355129,1141.926270 54.549038,1140.486450 
	C55.982357,1129.843018 58.046070,1119.315918 59.944664,1108.756104 
	C61.812748,1098.365967 63.499519,1087.943359 65.302238,1077.541382 
	C68.176880,1060.954224 71.057442,1044.368164 73.980675,1027.789551 
	C76.790672,1011.852966 79.577553,995.911560 82.542427,980.003540 
	C83.628159,974.178040 83.226501,968.106689 85.776474,962.236389 
	C87.195496,968.256042 85.067696,974.308350 84.756233,980.493713 
	C84.274010,990.070312 82.937187,999.602539 82.013939,1009.158508 
	C80.358246,1026.295410 78.717857,1043.434082 77.113953,1060.575928 
	C75.710129,1075.579590 74.699791,1090.628906 72.900116,1105.583984 
	C71.100258,1120.540649 70.465050,1135.603271 68.230240,1150.522949 
	C66.956589,1159.025757 66.806664,1167.691772 65.988159,1176.268921 
	C64.415535,1192.748291 62.371143,1209.191772 61.230373,1225.699219 
	C60.618347,1234.555664 59.258888,1243.278564 58.130623,1252.118164 
	C55.966663,1216.642334 54.742508,1181.153076 52.155994,1145.311035 
z"/>
<path fill="#211429" opacity="1.000000" stroke="none" 
	d="
M85.875229,348.628235 
	C81.348396,347.123322 82.890846,342.632538 82.265022,339.416840 
	C78.633179,320.755066 75.502922,301.995026 72.261139,283.258179 
	C68.792648,263.211060 65.451691,243.141754 61.933735,223.103424 
	C59.644928,210.066360 57.146770,197.065933 54.693535,184.058304 
	C54.622753,183.682999 53.998810,183.412018 53.245285,182.969086 
	C52.857571,182.475647 52.857357,182.105530 52.881760,181.457047 
	C53.858955,180.034576 53.500950,178.731003 53.130505,177.222778 
	C52.985443,170.788437 52.431267,164.492599 53.313667,158.404999 
	C54.438759,150.643127 54.584682,142.790009 54.686424,135.103317 
	C54.930729,116.645065 57.695171,98.320129 57.103508,79.843582 
	C57.032322,77.620575 57.883789,75.368019 58.508286,72.069138 
	C60.081566,88.431107 61.455776,103.690140 63.036430,118.927765 
	C65.238602,140.156952 67.687202,161.360748 69.854507,182.593353 
	C71.384636,197.583649 72.533173,212.612595 74.016533,227.608017 
	C75.531586,242.923904 77.834442,258.186340 78.712341,273.533966 
	C79.612427,289.269440 82.549568,304.771332 83.122200,320.530792 
	C83.458069,329.774536 85.740128,338.878998 85.875229,348.628235 
z"/>
<path fill="#371B44" opacity="1.000000" stroke="none" 
	d="
M98.299667,470.813721 
	C97.675903,467.690247 97.343338,464.266449 97.024498,460.408142 
	C97.251312,459.979401 97.464401,459.985107 98.000137,460.001556 
	C99.632507,463.481537 99.222282,466.994629 98.299667,470.813721 
z"/>
<path fill="#211429" opacity="1.000000" stroke="none" 
	d="
M86.797104,356.738037 
	C84.709061,356.439331 84.780853,355.053345 85.696487,353.232788 
	C87.176247,353.868347 86.932358,355.145142 86.797104,356.738037 
z"/>
<path fill="#0A0514" opacity="1.000000" stroke="none" 
	d="
M52.902367,177.407318 
	C54.328880,178.044571 54.186378,179.322083 53.168327,180.933044 
	C52.905365,180.060089 52.904354,178.941498 52.902367,177.407318 
z"/>
<path fill="#0A0514" opacity="1.000000" stroke="none" 
	d="
M159.665771,941.332214 
	C159.961838,947.721130 159.826035,954.386658 160.029556,961.041931 
	C161.006348,992.982361 160.372086,1024.949829 161.277115,1056.874878 
	C161.885529,1078.336792 161.146164,1099.810547 162.223053,1121.229370 
	C163.252136,1141.697754 163.199783,1162.155762 162.766159,1182.599609 
	C162.549667,1192.805908 160.384247,1202.970947 159.013855,1213.550415 
	C155.582153,1211.907837 156.608170,1207.994995 155.165558,1205.109497 
	C151.100647,1196.978882 147.025528,1188.831665 143.511887,1180.457031 
	C141.979507,1176.804688 142.908875,1172.539062 143.146332,1168.570923 
	C143.640762,1160.308716 144.376343,1152.061157 144.996277,1143.806274 
	C146.310669,1126.304321 147.644272,1108.803589 148.905304,1091.297729 
	C149.310150,1085.677612 149.575958,1080.015625 149.769821,1074.418457 
	C150.349991,1057.668701 152.111649,1041.012085 153.188202,1024.310913 
	C154.456192,1004.639954 156.086151,984.992126 157.277451,965.307251 
	C157.753830,957.435364 157.109894,949.352051 159.665771,941.332214 
z"/>
<path fill="#0A0514" opacity="1.000000" stroke="none" 
	d="
M158.682007,111.052567 
	C160.377502,122.482887 162.412796,133.966568 162.879547,145.513657 
	C163.517715,161.301697 163.608490,177.172684 162.759933,192.944962 
	C161.641266,213.737503 162.816254,234.539276 161.792145,255.290985 
	C160.478836,281.903717 161.827362,308.536102 160.700912,335.113892 
	C160.038086,350.752441 160.402039,366.368866 159.931564,382.445526 
	C158.120148,378.876404 158.554276,374.449646 158.203293,370.286072 
	C157.035019,356.427307 156.872101,342.487213 155.924011,328.605591 
	C154.865158,313.102386 152.823883,297.649170 152.249512,282.135742 
	C151.844208,271.188812 150.384750,260.362488 149.868073,249.436417 
	C149.079407,232.759155 147.419891,216.122696 146.104767,199.470917 
	C145.726913,194.686508 145.600540,189.879166 145.274231,185.097336 
	C144.519318,174.034622 144.106339,162.936264 142.934891,151.905731 
	C142.331100,146.220383 144.719498,141.591553 146.912720,136.757065 
	C150.775238,128.242950 154.525436,119.677902 158.682007,111.052567 
z"/>
<path fill="#4E1D59" opacity="1.000000" stroke="none" 
	d="
M109.258224,314.852905 
	C106.682167,311.483887 109.090927,307.951752 109.056740,304.394958 
	C108.945290,292.800537 109.254036,281.202057 109.642769,269.266418 
	C112.061317,270.903534 111.161285,273.709808 111.341125,275.987549 
	C112.317856,288.358032 112.868134,300.768280 110.740639,313.102112 
	C110.642349,313.671936 109.990692,314.146332 109.258224,314.852905 
z"/>
<path fill="#211428" opacity="1.000000" stroke="none" 
	d="
M104.881561,528.651733 
	C103.809593,528.077209 104.015907,526.843384 104.045776,525.292725 
	C105.147667,525.846069 104.968704,527.085999 104.881561,528.651733 
z"/>
<path fill="#211428" opacity="1.000000" stroke="none" 
	d="
M104.292183,788.786987 
	C104.150581,787.866272 104.260406,786.689697 104.602242,785.250549 
	C104.737366,786.169067 104.640488,787.350098 104.292183,788.786987 
z"/>
<path fill="#371B44" opacity="1.000000" stroke="none" 
	d="
M99.965515,479.519531 
	C98.216118,478.111359 99.342468,475.832153 98.944725,473.370422 
	C100.828117,474.732635 99.658028,477.047455 99.965515,479.519531 
z"/>
<path fill="#391C48" opacity="1.000000" stroke="none" 
	d="
M99.035095,855.596802 
	C95.523682,852.670105 96.676651,849.035095 98.767609,845.102173 
	C99.051903,848.269043 99.044571,851.700134 99.035095,855.596802 
z"/>
</svg>